Coordinates
version=1
nRows=10
nColumns=33
inDegrees=yes

Units are S.I. units (second, meters, Newtons, ...)
Angles are in degrees.

endheader
time	ground_thorax_rot_x	ground_thorax_rot_y	ground_thorax_rot_z	ground_thorax_tx	ground_thorax_ty	ground_thorax_tz	clav_prot_r	clav_elev_r	scapula_abduction_r	scapula_elevation_r	scapula_upward_rot_r	scapula_winging_r	shoulder_elv_r	plane_of_elev_r	axial_rot_r	elbow_flexion_r	pro_sup_r	wrist_flex_r	wrist_dev_r	clav_prot_l	clav_elev_l	scapula_abduction_l	scapula_elevation_l	scapula_upward_rot_l	scapula_winging_l	shoulder_elv_l	plane_of_elev_l	axial_rot_l	elbow_flexion_l	pro_sup_l	wrist_flex_l	wrist_dev_l
      6.08000000	     38.77700560	     -0.96088295	     10.75086581	   -126.64579300	    794.13476275	      4.97057240	     15.52824257	     37.36788958	     36.92496658	     45.00000000	    -45.00000000	  -2592.34068265	  -2267.09652651	    146.81440800	    179.99999979	    726.94397918	     50.85352165	     22.91343538	     15.01233586	      8.83683659	    -45.00000000	    -38.96526316	     45.00000000	    -34.64284163	   4770.08338468	  -4250.33816631	     19.30856499	    -43.78370970	   1085.05865807	   -344.96413733	     11.56427218	    -18.76570304
      6.09000000	     38.74552691	     -0.95205388	     10.84178950	   -132.24883954	    794.97777139	      4.64067425	     15.32678849	     37.27838621	     36.39394162	     45.00000000	    -45.00000000	  -2592.38452180	  -2267.00548530	    147.07653343	    179.99999979	    726.90849536	     51.41282333	     23.01337910	     14.97819194	      8.59113480	    -45.00000000	    -38.35965886	     45.00000000	    -36.25639935	   4770.05485854	  -4250.03733517	     19.43531410	    -43.35610698	   1085.13886401	   -344.86220589	     11.77326010	    -18.85458707
      6.10000000	     38.67035978	     -0.90247424	     10.92079817	   -137.87156936	    796.00802453	      4.28960891	     15.13959041	     37.15678896	     35.92620071	     45.00000000	    -45.00000000	  -2592.56980087	  -2267.06940012	    147.24544041	    179.99999979	    726.78410821	     52.04475894	     23.19567564	     14.99958598	      8.64846593	    -45.00000000	    -37.97676854	     45.00000000	    -37.47083080	   4770.22117267	  -4249.81096150	     19.45540719	    -43.43532836	   1085.27297241	   -344.51420597	     11.87259655	    -18.97862973
      6.11000000	     38.59775336	     -0.90444968	     10.92962028	   -143.50341290	    797.23633828	      3.91596834	     14.97023868	     37.07565555	     35.43008820	     45.00000000	    -45.00000000	  -2592.73593314	  -2267.08751834	    147.34389037	    179.99999979	    726.66899247	     52.70263483	     23.37116233	     15.00211139	      8.77097458	    -45.00000000	    -37.64425193	     45.00000000	    -38.37124317	   4770.43352918	  -4249.60935255	     19.36688504	    -43.99041210	   1085.40586143	   -343.97746944	     11.87718975	    -19.10316300
      6.12000000	     38.54904171	     -0.90002233	     10.98114674	   -149.14290928	    798.65841891	      3.51069863	     14.86713380	     36.85986393	     34.98939025	     45.00000000	    -45.00000000	  -2592.95193766	  -2267.11173417	    147.46269318	    179.99999979	    726.55947988	     53.46186849	     23.58214633	     15.00729325	      8.89973522	    -45.00000000	    -37.27060100	     45.00000000	    -39.38295435	   4770.69184344	  -4249.45338081	     19.37993572	    -44.12877598	   1085.51716035	   -343.40778916	     11.93582746	    -19.26072447
      6.13000000	     38.48752200	     -0.95056654	     10.93962777	   -154.76862057	    800.27958200	      3.07710093	     14.68556740	     36.75868956	     34.54487147	     45.00000000	    -45.00000000	  -2593.10544805	  -2267.10101731	    147.60249711	    179.99999979	    726.53753128	     54.23862310	     23.81519491	     14.97368376	      9.06812544	    -45.00000000	    -36.94752623	     45.00000000	    -40.27462074	   4770.93756597	  -4249.26509260	     19.35374740	    -44.53393678	   1085.67319284	   -342.69114567	     11.90021620	    -19.42999431
      6.14000000	     38.40658016	     -1.03722079	     10.89502509	   -160.36179653	    802.09216479	      2.61230010	     14.27266030	     37.03497197	     34.12406953	     45.00000000	    -45.00000000	  -2593.17952782	  -2267.06117420	    147.77802624	    179.99999979	    726.52233448	     54.92026329	     24.05836879	     14.90671259	      9.25774990	    -45.00000000	    -36.58351650	     45.00000000	    -40.62730270	   4771.25461074	  -4249.02787017	     19.02995236	    -46.16685140	   1085.87826101	   -341.77120784	     11.55891199	    -19.54978832
      6.15000000	     38.40145064	     -1.12833163	     10.77016320	   -165.87803156	    804.09658488	      2.12701724	     14.34287109	     36.57941415	     33.72038810	     45.00000000	    -45.00000000	  -2593.41806737	  -2267.02063307	    147.83814224	    179.99999979	    726.55893823	     55.83198561	     24.29752560	     14.86672424	      9.33329985	    -45.00000000	    -36.37500266	     45.00000000	    -41.79326737	   4771.45847954	  -4248.91884575	     19.22364206	    -45.42992575	   1086.04245694	   -340.99501031	     11.73156392	    -19.81074511
      6.16000000	     38.34815556	     -1.22075185	     10.71382337	   -171.28677100	    806.28978397	      1.63072045	     13.87742764	     36.86178032	     33.31638132	     45.00000000	    -45.00000000	  -2593.49703979	  -2266.91612099	    147.96812301	    179.99999979	    726.52123045	     56.51269189	     24.53758380	     14.78634829	      9.50300337	    -45.00000000	    -35.96911333	     45.00000000	    -42.04473022	   4771.76437811	  -4248.66553537	     18.87066853	    -47.14496928	   1086.30001601	   -339.89496284	     11.31249797	    -19.93012392
      6.17000000	     38.26528846	     -1.27606420	     10.68788790	   -176.54578256	    808.67445707	      1.14088451	     13.74647245	     36.77090940	     32.93471516	     45.00000000	    -45.00000000	  -2593.68349102	  -2266.94810678	    148.05249603	    179.99999979	    726.48482553	     57.16817597	     24.83717063	     14.78351175	      9.77490053	    -45.00000000	    -35.69626114	     45.00000000	    -42.27275524	   4772.23662606	  -4248.47642113	     18.62919695	    -48.64570359	   1086.53012008	   -338.84527249	     10.98937182	    -20.08821858
